<svg xmlns="http://www.w3.org/2000/svg" xmlns:xlink="http://www.w3.org/1999/xlink" viewBox="0 0 450 62"><defs><linearGradient id="a" x1="30.69" y1="61.38" x2="30.69" gradientUnits="userSpaceOnUse"><stop offset="0" stop-color="#fff"/><stop offset="0.04" stop-color="#ffeaeb"/><stop offset="0.13" stop-color="#ffbabd"/><stop offset="0.23" stop-color="#ff9094"/><stop offset="0.33" stop-color="#ff6c72"/><stop offset="0.43" stop-color="#ff5056"/><stop offset="0.55" stop-color="#ff3940"/><stop offset="0.67" stop-color="#ff2931"/><stop offset="0.81" stop-color="#ff2028"/><stop offset="1" stop-color="#ff1d25"/></linearGradient></defs><path d="M80.9,41.6c0,.9-.5,1.1-3.1,1.1s-1.6-.2-1.6-1c.2-6.8.3-10.9.3-19.7s-.1-9.7-.3-13a50.4,50.4,0,0,1,5.2,2.6H96L98.4,9l3.4,2.6c.3.3.5.5.5.7s-.3.7-1.5,1.3v6.1c0,11.5,0,14,.3,21.5,0,.5-.1.7-.3.8a6.3,6.3,0,0,1-2.9.4c-1.3,0-1.6-.1-1.6-.7h0V39.3H80.9ZM96.3,12.4H80.9V24.5H96.3ZM80.9,25.3V38.5H96.3V25.3Z"/><path d="M127.2,17.3a19.5,19.5,0,0,0,2,3.9,27.5,27.5,0,0,0,9.3,8.6,21.9,21.9,0,0,0,5.1,2.4v.4a3.7,3.7,0,0,0-2.3,1.9,12.9,12.9,0,0,0-.9,1.6c-.1.4-.3.6-.4.6a7.2,7.2,0,0,1-1.6-.9,30,30,0,0,1-8.1-9.2,36,36,0,0,1-3.5-8.4V34.1h1.9l2.4-3.1a42.4,42.4,0,0,1,3.9,3.3l.2.3c0,.2-.2.3-.4.3h-8c.1,5.8.1,5.8.2,7.8s-.4,1-3,1-1.6-.1-1.6-.8c.1-2.8.1-3.5.2-8h-5a8.6,8.6,0,0,0-2.4.2l-.2-1.3a12.2,12.2,0,0,0,2.6.3h5V22.7a30.9,30.9,0,0,1-7.7,9,40.4,40.4,0,0,1-8.5,5.6l-.3-.4a50,50,0,0,0,10.1-11.2,46.8,46.8,0,0,0,4.6-8.4H110.8a11.8,11.8,0,0,0-2.7.3l-.2-1.4,2.9.3h11.9V12.3a23.3,23.3,0,0,0-.3-4l2.9.3c2.6.3,3.1.4,3.1.9s-.4.6-1.6,1v6H135l2.9-3.4a51.9,51.9,0,0,1,4.5,3.7c.1.1.2.2.2.3s-.2.2-.4.2Z"/><path d="M155.1,16.9a24.1,24.1,0,0,1,2.1-2.4,34.4,34.4,0,0,1,2.7,2.7c.1.1.2.2.2.3s-.2.2-.4.2h-5.2v5.9l3.6-1.6v.3a22.8,22.8,0,0,1-3.7,3.3V39.7c0,2-.8,2.9-2.8,3.5a6.8,6.8,0,0,1-1.9.3c-.4,0-.5,0-.5-.8s-.6-2.3-4.1-3.3v-.5h4.6c.5,0,.6-.1.6-.5V28.6l-2.3,1.5c-.1,1.4-.3,1.9-.6,1.9s-.4-.2-.5-.5a42.3,42.3,0,0,1-1.8-4.9,25.3,25.3,0,0,0,5.2-1.5V17.7h-2.6l-2,.2-.2-1.3a8.9,8.9,0,0,0,2.2.3h2.6V13.2c0-2.3-.1-3.4-.2-4.8l2.7.3c2.4.1,3.2.3,3.2.8s-.5.6-1.6.9v6.5Zm3.7,8.4-2.6,1.3-.3-.3c4.2-3.7,5.2-6.6,5.2-14.8a27.2,27.2,0,0,0-.1-2.8,29.6,29.6,0,0,1,4.8,2.2h3.8a20.9,20.9,0,0,1,2-2.2l3.1,2.2c.4.2.5.4.5.5s-.3.6-1.4,1.1v6.2c0,.7,0,.7,1.2.7s1.6,0,1.9-.7.7-1.4,2.2-5.4h.4l-.3,4.7v.3a.6.6,0,0,0,.5.6c1,.3,1.3.7,1.3,1.5a1.6,1.6,0,0,1-.8,1.5c-.7.5-2,.6-4.8.6s-4.2,0-4.7-.3-.9-.9-.9-2.2V11.7h-4.4c-.2,5.2-.7,7.2-2.2,9.5a14.1,14.1,0,0,1-4.1,3.9,7.8,7.8,0,0,0,2.2.2h10.5l2.2-2.1,3.7,2.7c.3.3.4.5.4.6s-.6.7-2,.9a25.4,25.4,0,0,1-5.4,7.7c3.1,1.6,5.6,2.2,10.6,2.8v.4a4.1,4.1,0,0,0-2,1.7,6.4,6.4,0,0,0-1,2.2.6.6,0,0,1-.6.5l-2-.6a29.7,29.7,0,0,1-7.6-4.7,26.9,26.9,0,0,1-5,3.2,41.1,41.1,0,0,1-8.7,2.7l-.2-.5c5.6-2.6,8.3-4.4,11.7-7.8a21.4,21.4,0,0,1-4.8-8.9l-2.1.3Zm3.1.8c1.5,3.2,2.5,4.4,5.6,7.1a21.8,21.8,0,0,0,4.3-7.1Z"/><path d="M183.8,43.4a33.3,33.3,0,0,0,7.8-3.6,13.2,13.2,0,0,0,3.2-2.6c4.8,1.6,5.5,1.9,5.5,2.3s-.6.6-2.2.6c-4.8,2.4-7.8,3.2-14.2,3.7Zm14.3-26.2A57.4,57.4,0,0,1,187.2,22c-.1,1.1-.3,1.4-.6,1.4s-.9-1-2.1-5h1.1A94.7,94.7,0,0,0,198,16.8ZM185.7,25a26.9,26.9,0,0,0,4.3-1.2c0-.6-.1-.9-.1-1.8l2.5,1a27.8,27.8,0,0,0,5.5-2.9,11.8,11.8,0,0,0,4.3-4.7,7.1,7.1,0,0,0,.6-1.9c5.5.7,5.7.8,5.7,1.2s-.4.6-1.3.7a9.5,9.5,0,0,0,4.3,3.5,20.6,20.6,0,0,0,8.5,1.5v.5a4.9,4.9,0,0,0-2.6,3.5c-.1.3-.3.5-.5.5a16.4,16.4,0,0,1-4.2-2,14.2,14.2,0,0,1-6.1-7.4h-.1a12.4,12.4,0,0,1-4.9,5.7,21.6,21.6,0,0,1-5.4,2.4h12.6l1.6-1.6,3.2,2.4c.4.3.5.4.5.6s-.3.5-1,.9v3.4c0,2.2,0,4,.1,7.2,0,.8-.6,1.1-2.8,1.1s-1.4-.1-1.4-.6v-.4H194.1v.5c0,.5-.5.7-2.7.7s-1.5-.2-1.5-.8c.1-3.2.1-4.7.1-10.1V25a30.2,30.2,0,0,1-4.2.5Zm.4-15.7c6.3.7,8.3,1.5,8.3,3.4s-.9,3-1.9,3-.6-.1-1.6-1.5a20.9,20.9,0,0,0-5-4.6ZM209,27.6V24.4H194.1v3.2Zm-14.9.8v3.2H209V28.4Zm0,4v3.4H209V32.4Zm6.2-19.3a20.2,20.2,0,0,1-5.7,3.8l-.3-.2c2.4-2.9,4.1-5.9,4.6-8.6,5,1,5.6,1.2,5.6,1.6s-.6.7-1.8.8l-1.5,1.8H212l2.2-2.4c1.7,1.2,2.2,1.5,3.8,2.8s.6.6.6.8-.6.6-2.2.6a38.8,38.8,0,0,1-5.6,3l-.4-.3a20.9,20.9,0,0,0,1.9-3.7Zm3.5,24.8c6.5.5,9.1.8,10.4,1.2s2.9,1.6,2.9,3.4-.5,1.8-1.2,1.8-.6-.1-1.4-.7a41,41,0,0,0-10.9-5.3Z"/><path d="M237.4,33.7l1.5-.3,1.3-.2v.3a97.5,97.5,0,0,1-15.2,6.7c-.2,1.3-.3,1.7-.7,1.7s-.4,0-2.4-5.5l2.7-.3V13.6c0-1.1-.1-2-.2-3.9a49.5,49.5,0,0,1,4.6,2.4h4.1a21.9,21.9,0,0,1,2.1-2.3l3,2.2c.3.3.5.5.5.7s-.1.4-1.4,1.1Zm-4-20.8h-4.7v6.8h4.7Zm0,7.6h-4.7v6.8h4.7Zm0,7.6h-4.7v7.4l4.7-1Zm9.8-9.6c0-.9.1-6,.1-7a24.4,24.4,0,0,0-.1-2.7l2.7.2c2.4.2,3.2.5,3.2.9s-.4.6-1.5,1.1c0,3,0,4.4-.2,7.5h4.2a25,25,0,0,1,2.2-2.4l3.2,2.4c.3.3.4.5.4.7s-.4.7-1.3,1.1l-.3,6.2c-.4,7.8-1,12.1-2,13.9a4,4,0,0,1-2.5,2.1,8.4,8.4,0,0,1-3,.6c-.4,0-.4-.1-.5-.6a3.2,3.2,0,0,0-.4-1.8,4.1,4.1,0,0,0-2.3-1.3l-2.1-.6v-.5l5.6.4c1.6,0,1.7-.2,2.1-2.7s.9-9.1,1.2-16.7h-4.7c-.5,7.5-1.4,12-3.2,15.1s-5.4,6.3-11.4,9.3l-.3-.4a30.5,30.5,0,0,0,5.7-5.3c3.3-4.1,4.6-8.7,5.1-18.7h-1.8l-2.7.3-.3-1.4,3,.3Z"/><path d="M260.7,15.7a19.3,19.3,0,0,0,3.3.3h24.4a30.6,30.6,0,0,1,3-3.2,43.5,43.5,0,0,1,4.2,3.3c.2.2.2.3.2.4s-.2.3-.5.3H264a15.1,15.1,0,0,0-3,.2Zm4.7-5.1a10.2,10.2,0,0,0,3,.3h15.4L286.6,8a44,44,0,0,1,4.1,3.1c.2.2.2.3.2.4l-.4.2H268.4a12.7,12.7,0,0,0-2.8.3Zm.1,15.3a14.3,14.3,0,0,0,2.9.3H284l2.7-3c1.9,1.3,2.4,1.8,4.2,3.1.2.2.2.3.2.4s-.2.3-.5.3H268.4a12.4,12.4,0,0,0-2.7.3Zm0-5.1,3,.3H284c1.2-1.4,1.6-1.7,2.8-3l4.2,3.1c.1.2.2.3.2.4s-.2.3-.5.3H268.5a12.7,12.7,0,0,0-2.7.2Zm4.8,21.9a.8.8,0,0,1-.2.6,5.8,5.8,0,0,1-2.6.4c-1.5,0-1.7-.1-1.7-.9.2-3.7.2-4.5.2-7s-.1-4.9-.2-6.9c2.1.9,2.8,1.3,4.8,2.3h14.7l2.3-2.3,3.3,2.3c.4.3.5.5.5.7s-.2.5-1.5,1.2c.1,6.4.1,7.3.2,9.4,0,.5-.1.7-.5.8a7.9,7.9,0,0,1-2.6.3c-1.2,0-1.4-.1-1.4-.8V40.9H270.3Zm0-2.6h15.3V32H270.3Z"/><path d="M328,24.5l2.4-3.2,4.1,3.4c.1.2.2.3.2.4l-.4.2H324.2a17.4,17.4,0,0,0,3.2,5.1,19.7,19.7,0,0,0,8,5v.4c-1.4.9-1.8,1.6-2.3,4.1-.2.3-.3.5-.5.5s-1.7-1.1-2.8-2.4c-2.7-3-4.3-6.1-6-11.8v6.7c0,5.1,0,5.1.1,9.6,0,.4-.1.7-.3.8a6.9,6.9,0,0,1-2.6.4c-1.2,0-1.5-.2-1.5-.8.2-4.7.2-4.7.3-8.9V30.5a27.3,27.3,0,0,1-11.3,10l-.3-.3a36.2,36.2,0,0,0,6.9-8.6,51,51,0,0,0,3-6.3h-5.8a2.6,2.6,0,0,1,.3,1.1c0,1.5-1.3,3-2.4,3s-.9-.4-1-1.6a10.1,10.1,0,0,0-1.8-5.7V24c0,8.2,0,14,.1,18.4,0,1-.5,1.2-3,1.2-1,0-1.3-.2-1.3-.8.2-4.4.2-4.4.4-12.8V26.6a26.3,26.3,0,0,1-5.3,8.3l-.4-.3a44.7,44.7,0,0,0,3.6-9.6,54,54,0,0,0,1.6-7.2h-2.3a7.1,7.1,0,0,0-2.1.2l-.3-1.4a6.7,6.7,0,0,0,2.4.4h2.6V13.1a37,37,0,0,0-.2-4.7l2.7.3c2.3.2,2.9.3,2.9.8s-.3.5-1.4.9V17h.6l1.8-2.5a38.5,38.5,0,0,1,3,2.7,33.4,33.4,0,0,0,1.1-6.7c4.9,1.2,5.4,1.3,5.4,1.8s-.3.4-1.4.7a26.6,26.6,0,0,1-1.9,3.8h3.6V12.7c0-2.2,0-2.8-.1-4.4l2.6.3c2.7.3,3.2.4,3.2.9s-.4.6-1.6,1v6.3h3.1c1.1-1.3,1.4-1.8,2.5-3,1.7,1.3,2.2,1.8,3.9,3.3l.3.3c0,.2-.2.2-.4.2h-9.4v6.9Zm-8.3-6.9h-4a26.4,26.4,0,0,1-4.6,5.5l-.3-.3a32.5,32.5,0,0,0,1.9-5h-5.2v3.6a12.4,12.4,0,0,1,4.4,3.1h7.8Z"/><path d="M357.2,16.4V13.3c-.1-2.5-.2-3.2-.3-4.9,5,.5,5.3.5,5.8.8s.2.2.2.3-.3.7-1.5,1c-.1,1.8-.1,2.9-.1,3.4s0,1.1.1,2.5h4.2l1.2-1.4c-.6,0-.7-.2-1.2-1.5a12.2,12.2,0,0,0-2.4-4.1V9.1a25,25,0,0,1,4.1,1.3c1.3.7,1.8,1.3,1.8,2.2a1.9,1.9,0,0,1-.3,1.2c1.6,1.2,1.9,1.5,3.4,2.8s.3.3.3.4-.2.2-.5.2H361.4a67.9,67.9,0,0,0,.7,7.9,23.6,23.6,0,0,0,3.2,8.3,12.8,12.8,0,0,0,3.3,3.4,80,80,0,0,0,3.5-7.2h.4l-1.1,6.7a6.9,6.9,0,0,0-.2,1.3c0,.5.1.7.7,1.4a2.3,2.3,0,0,1-1.4,3.9c-1.5,0-3.6-1.3-5.8-3.6-3.8-4-6-9.1-6.9-16.2a46.6,46.6,0,0,1-.5-6H341.1a14.2,14.2,0,0,0-3.3.3l-.2-1.5a12.9,12.9,0,0,0,3.5.4Zm-7.4,18.1c2.8-.6,5.2-1.2,8.5-2.2v.5a113.6,113.6,0,0,1-17.3,7.8c-.2,1.5-.3,2-.8,2s-.7-.8-2.3-6.1a46.2,46.2,0,0,0,7.6-1.2V24.7h-3.8a11.5,11.5,0,0,0-2.6.3l-.2-1.5a9,9,0,0,0,2.8.4h8.6l2.6-3,3.9,3.2c.2.2.2.3.2.4s-.1.2-.3.2h-7Z"/><path d="M375.1,25.9a46.5,46.5,0,0,0,8.8-8.3c3-3.6,4.7-6.5,5.6-9.4l3,.7c2.8.5,3.6.8,3.6,1.2s-.3.5-1.5.8a18.3,18.3,0,0,0,7.7,6.6,28.9,28.9,0,0,0,9.4,2.9v.4a4.8,4.8,0,0,0-2.6,2.8l-.4,1.3c-.2.4-.3.5-.5.5a11.2,11.2,0,0,1-3.3-1.6,25.9,25.9,0,0,1-7.6-6.9,17.6,17.6,0,0,1-3.3-5.7,38.7,38.7,0,0,1-18.7,15.1Zm18.1,3.7a69.1,69.1,0,0,1-7.4,8.5c7.1-.2,10.8-.3,14.6-.7a25.2,25.2,0,0,0-4.2-5.9l.3-.3a36.9,36.9,0,0,1,7,4.3c2,1.6,2.8,2.6,2.8,3.8s-1.4,4-2.7,4-.6-.1-1-1.1a39.5,39.5,0,0,0-1.6-3.7l-.8.3c-4,1-11.2,2.5-19.1,3.7-.2,1.2-.4,1.5-.8,1.5s-.4,0-1.8-6.1a28.2,28.2,0,0,0,4.3.2h1.3a65.3,65.3,0,0,0,3.2-8.5h-7.7a10.6,10.6,0,0,0-2.4.2l-.3-1.4a9.6,9.6,0,0,0,2.8.3H402l2.8-3.2c2.1,1.4,2.7,1.9,4.7,3.4.2.2.2.3.2.4a.4.4,0,0,1-.4.3Zm-9.5-7.4a9.2,9.2,0,0,0,2.8.3h7.9a41.2,41.2,0,0,1,2.8-3.1l4.3,3.3c.2.2.3.3.3.4s-.2.2-.5.2h-15l-2.3.2Z"/><path d="M423.1,25a15.8,15.8,0,0,1,3.3,1.1c2.7,1.1,3.7,2.1,3.7,3.6s-1.2,3-2.3,3-.8-.4-1.3-1.5a12.8,12.8,0,0,0-3.4-5.6v17c0,.4,0,.6-.3.7a4.5,4.5,0,0,1-2.4.4c-1.3,0-1.7-.2-1.7-.8.1-3.2.2-6.8.2-8.5V28.6a35.4,35.4,0,0,1-5.4,3.7l-.3-.4a33.8,33.8,0,0,0,5.8-6.8,29,29,0,0,0,4.3-8.1h-6.8a17.2,17.2,0,0,0-2.6.2l-.3-1.4a9.7,9.7,0,0,0,2.9.4h2.3V11.8a16.7,16.7,0,0,0-.2-3.2c5.7.5,5.9.6,5.9,1.1s-.4.6-1.5,1v5.5h1a20.9,20.9,0,0,1,2-2.2,40,40,0,0,1,3.1,2.7c.4.4.4.5.4.6s-.3.6-1.9.9a39.3,39.3,0,0,1-4.5,6.4Zm7.4-2.5a10.6,10.6,0,0,0-2.7.2l-.3-1.3a14.5,14.5,0,0,0,3,.3H435v-8a42.4,42.4,0,0,0-.3-5.1l2.9.2c2.7.2,3.4.4,3.4.9s-.5.7-1.6,1v11h2.4l2.8-3.5a39.1,39.1,0,0,1,4.4,3.7l.2.3c0,.2-.2.3-.4.3h-9.4V41h2.8l3.1-3.6,4.2,3.8c.2.2.2.3.2.4s-.1.2-.3.2H428.6a13.2,13.2,0,0,0-3,.2l-.3-1.3a16.1,16.1,0,0,0,3.3.3H435V22.5Z"/><circle cx="30.7" cy="30.7" r="30.7" fill="url(#a)"/><path d="M41.5,13.6l-2.2,1.6C31,9.7,22.5,9.1,14.1,14.5A20.8,20.8,0,0,0,4.6,33l.5-.3,9.1-4.8.7-.2,11.5-.5.5-.2L45.5,13.6l.2-.2L44.4,11H54l-8.7,6.3a24.2,24.2,0,0,1,4.4,21.1A22.8,22.8,0,0,1,38.9,53.1a24.4,24.4,0,1,1,2.6-39.5ZM23.4,53.9v-21h5.7V53.7h.5a23.8,23.8,0,0,0,5.2-1.5c.4-.2.5-.4.5-.9V24.9h5.8v23a21.4,21.4,0,0,0,1.8-29l-.3.3c-4.8,3.4-9.7,6.8-14.4,10.3a3,3,0,0,1-1.6.5l-10.9.4-.6.2L5.2,35.9c-.3.2-.3.4-.3.7a22.2,22.2,0,0,0,7.5,12.5l.4.2V38.7h5.8v14Z" fill="#fff"/></svg>